<svg xmlns="http://www.w3.org/2000/svg" width="1920" height="1051" viewBox="0 0 1920 1051"><g transform="translate(0 -29)"><rect width="1920" height="1051" transform="translate(0 29)" fill="#1f1f1f"/><g transform="translate(0 100)" opacity="0.03"><rect width="144" height="144" fill="#eff5f8"/><rect width="144" height="144" transform="translate(1920 980) rotate(180)" fill="#eff5f8"/><rect width="144" height="144" transform="translate(144 144)" fill="#fafdff"/><rect width="144" height="144" transform="translate(1776 836) rotate(180)" fill="#fafdff"/><rect width="144" height="144" transform="translate(288 289)" fill="#f7fafc"/><rect width="144" height="144" transform="translate(1632 691) rotate(180)" fill="#f7fafc"/><rect width="144" height="144" transform="translate(288 1)" fill="#f7fafc"/><rect width="144" height="144" transform="translate(1632 979) rotate(180)" fill="#f7fafc"/><rect width="144" height="144" transform="translate(432 433)" fill="#fafdff"/><rect width="144" height="144" transform="translate(1488 547) rotate(180)" fill="#fafdff"/><rect width="144" height="144" transform="translate(0 289)" fill="#f2f6f8"/><rect width="144" height="144" transform="translate(1920 691) rotate(180)" fill="#f2f6f8"/><rect width="144" height="144" transform="translate(432 145)" fill="#f7fafc"/><rect width="144" height="144" transform="translate(1488 835) rotate(180)" fill="#f7fafc"/><rect width="144" height="144" transform="translate(576 1)" fill="#f7fafc"/><rect width="144" height="144" transform="translate(1344 979) rotate(180)" fill="#f7fafc"/></g></g></svg>