<svg xmlns="http://www.w3.org/2000/svg" width="1920" height="1051" viewBox="0 0 1920 1051">
  <g id="bg_service" transform="translate(0 -29)">
    <g id="service_bg">
      <rect id="Rectangle_23" data-name="Rectangle 23" width="1920" height="980" transform="translate(0 100)" fill="#ecf0f3" opacity="0.35"/>
      <rect id="Rectangle_47" data-name="Rectangle 47" width="1920" height="1051" transform="translate(0 29)" fill="#1391be"/>
    </g>
    <g id="Bg" transform="translate(0 100)" opacity="0.07">
      <rect id="Rectangle_1" data-name="Rectangle 1" width="144" height="144" fill="#eff5f8"/>
      <rect id="Rectangle_11" data-name="Rectangle 11" width="144" height="144" transform="translate(1920 980) rotate(180)" fill="#eff5f8"/>
      <rect id="Rectangle_3" data-name="Rectangle 3" width="144" height="144" transform="translate(144 144)" fill="#fafdff"/>
      <rect id="Rectangle_13" data-name="Rectangle 13" width="144" height="144" transform="translate(1776 836) rotate(180)" fill="#fafdff"/>
      <rect id="Rectangle_4" data-name="Rectangle 4" width="144" height="144" transform="translate(288 289)" fill="#f7fafc"/>
      <rect id="Rectangle_16" data-name="Rectangle 16" width="144" height="144" transform="translate(1632 691) rotate(180)" fill="#f7fafc"/>
      <rect id="Rectangle_5" data-name="Rectangle 5" width="144" height="144" transform="translate(288 1)" fill="#f7fafc"/>
      <rect id="Rectangle_12" data-name="Rectangle 12" width="144" height="144" transform="translate(1632 979) rotate(180)" fill="#f7fafc"/>
      <rect id="Rectangle_10" data-name="Rectangle 10" width="144" height="144" transform="translate(432 433)" fill="#fafdff"/>
      <rect id="Rectangle_19" data-name="Rectangle 19" width="144" height="144" transform="translate(1488 547) rotate(180)" fill="#fafdff"/>
      <rect id="Rectangle_9" data-name="Rectangle 9" width="144" height="144" transform="translate(0 289)" fill="#f2f6f8"/>
      <rect id="Rectangle_17" data-name="Rectangle 17" width="144" height="144" transform="translate(1920 691) rotate(180)" fill="#f2f6f8"/>
      <rect id="Rectangle_8" data-name="Rectangle 8" width="144" height="144" transform="translate(432 145)" fill="#f7fafc"/>
      <rect id="Rectangle_15" data-name="Rectangle 15" width="144" height="144" transform="translate(1488 835) rotate(180)" fill="#f7fafc"/>
      <rect id="Rectangle_7" data-name="Rectangle 7" width="144" height="144" transform="translate(576 1)" fill="#f7fafc"/>
      <rect id="Rectangle_18" data-name="Rectangle 18" width="144" height="144" transform="translate(1344 979) rotate(180)" fill="#f7fafc"/>
    </g>
  </g>
</svg>
