<svg xmlns="http://www.w3.org/2000/svg" width="65" height="65" viewBox="0 0 65 65">
  <g id="bic" transform="translate(-199 -643)">
    <g id="Group_94" data-name="Group 94" transform="translate(120 -106)">
      <rect id="Rectangle_42" data-name="Rectangle 42" width="65" height="65" transform="translate(79 749)" fill="#1eb68a"/>
    </g>
    <g id="process" transform="translate(209.805 652.451)">
      <path id="Path_72" data-name="Path 72" d="M333.592,49.611A1.611,1.611,0,1,1,331.982,48,1.611,1.611,0,0,1,333.592,49.611Zm0,0" transform="translate(-296.663 -43.168)" fill="#fff"/>
      <path id="Path_73" data-name="Path 73" d="M31.292,45.1V37.851c0-.017.009-.031.01-.047a.791.791,0,0,1,.049-.36L37.689,21.78a14.143,14.143,0,0,0,.046-9.5v1.411a.805.805,0,0,1-.805.805H33.708a.805.805,0,0,1-.805-.805V12.276l-.805.805V15.3a.805.805,0,0,1-.805.805H30.21l.764.765a.8.8,0,0,1,0,1.138l-3.416,3.416a.805.805,0,0,1-1.139,0l-.765-.764v1.081a.805.805,0,0,1-.805.805H20.017a.805.805,0,0,1-.805-.805V20.663l-.765.764a.805.805,0,0,1-1.139,0L13.891,18.01a.805.805,0,0,1,0-1.138l.764-.765H13.574a.805.805,0,0,1-.805-.805V10.469a.805.805,0,0,1,.805-.805h1.082L13.891,8.9a.805.805,0,0,1,0-1.138l3.416-3.416a.805.805,0,0,1,1.139,0l.765.764V4.026a.805.805,0,0,1,.805-.805h4.832a.805.805,0,0,1,.805.805V5.108l.765-.764a.8.8,0,0,1,1.061-.052.8.8,0,0,1,.589-.266h1.465l-1-1a.8.8,0,0,1-.149-.917A20.625,20.625,0,0,0,20.067,0h-.639a15.092,15.092,0,0,0-6.282,1.624,15.263,15.263,0,0,0-8.431,13.7v3.2c0,.019-.009.035-.01.054a.868.868,0,0,1-.032.161.741.741,0,0,1-.054.151.359.359,0,0,1-.018.052L.5,25.771s4.468,0,4.535,0a.806.806,0,0,1,.75.858l-.556,8.2a2.442,2.442,0,0,0,1.3,2.644,1.559,1.559,0,0,0,.851.135l5.3-.574a.774.774,0,0,1,.46.1l.015.008a.772.772,0,0,1,.171.125l.013.01s.01.018.017.026a.786.786,0,0,1,.139.211.92.92,0,0,1,.029.09.782.782,0,0,1,.044.142c0,.019-.006.036,0,.055s.009.033.009.05V45.1Zm0,0" fill="#fff"/>
      <path id="Path_74" data-name="Path 74" d="M292.586,7.744a.805.805,0,0,1,.743-.5h1.893V5.637h-1.893a.805.805,0,0,1-.743-.5l-.194-.47a.8.8,0,0,1,.172-.875l1.342-1.339-1.14-1.14-1.339,1.342a.8.8,0,0,1-.877.175l-.469-.194a.805.805,0,0,1-.5-.746V0h-1.611V1.893a.805.805,0,0,1-.5.744l-.466.193a.806.806,0,0,1-.878-.175l-1.339-1.339-1.137,1.137L284.994,3.8a.806.806,0,0,1,.175.878l-.193.466a.806.806,0,0,1-.747.5h-1.893c0,.007,0,.013,0,.02l2.1,2.1a.8.8,0,0,1,0,1.138l-.764.765h1.081a.805.805,0,0,1,.805.805V10.8l.574-.574a.806.806,0,0,1,.877-.175l.469.194a.8.8,0,0,1,.5.743v1.893h1.611V10.993a.805.805,0,0,1,.5-.743l.469-.194a.805.805,0,0,1,.877.175l1.339,1.339,1.14-1.14L292.565,9.09a.806.806,0,0,1-.175-.877Zm-3.807,1.92A3.221,3.221,0,1,1,292,6.443,3.222,3.222,0,0,1,288.779,9.664Zm0,0" transform="translate(-253.461 0)" fill="#fff"/>
      <path id="Path_75" data-name="Path 75" d="M153.258,51.5l-2.278-2.277-1.471,1.47a.805.805,0,0,1-.886.173l-.088-.033a.806.806,0,0,1-.5-.747V48h-3.221v2.083a.805.805,0,0,1-.5.747l-.081.029a.885.885,0,0,1-.891-.17l-1.47-1.47L139.591,51.5l1.47,1.471a.806.806,0,0,1,.173.886l-.033.088a.805.805,0,0,1-.747.5h-2.083v3.221h2.083a.806.806,0,0,1,.747.5c0,.011.026.068.03.081a.887.887,0,0,1-.17.891l-1.47,1.471,2.278,2.278,1.47-1.47a.805.805,0,0,1,.886-.173l.088.033a.805.805,0,0,1,.5.746v2.079h3.221V62.024a.806.806,0,0,1,.5-.747l.081-.029a.885.885,0,0,1,.891.17l1.471,1.47,2.278-2.277-1.474-1.471a.805.805,0,0,1-.173-.886l.033-.088a.8.8,0,0,1,.746-.5h2.083V54.443h-2.083a.805.805,0,0,1-.746-.5c-.005-.011-.026-.068-.03-.081a.885.885,0,0,1,.17-.891Zm-6.834,8.583a4.027,4.027,0,1,1,4.027-4.027A4.027,4.027,0,0,1,146.425,60.08Zm0,0" transform="translate(-123.992 -43.168)" fill="#fff"/>
      <path id="Path_76" data-name="Path 76" d="M199.2,106.416A2.416,2.416,0,1,1,196.787,104,2.416,2.416,0,0,1,199.2,106.416Zm0,0" transform="translate(-174.354 -93.531)" fill="#fff"/>
    </g>
  </g>
</svg>
