<svg xmlns="http://www.w3.org/2000/svg" width="512" height="446" viewBox="0 0 512 446">
  <g id="heartbeat" transform="translate(0 -33)">
    <g id="Group_1343" data-name="Group 1343">
      <g id="Group_1342" data-name="Group 1342">
        <path id="Path_3215" data-name="Path 3215" d="M376,33c-60.659,0-99.6,42.012-120,79.849C235.6,75.011,196.659,33,136,33,59.037,33,0,95.446,0,178.268A155.877,155.877,0,0,0,12.294,239H126.728l25.854-51.709c5.1-10.166,21.738-10.166,26.836,0L226,280.456l16.582-33.164c5.1-10.166,21.738-10.166,26.836,0L286,280.456l46.582-93.164c5.1-10.166,21.738-10.166,26.836,0L385.272,239H499.706A155.877,155.877,0,0,0,512,178.268C512,95.446,452.963,33,376,33Z" fill="#fff"/>
      </g>
    </g>
    <g id="Group_1345" data-name="Group 1345">
      <g id="Group_1344" data-name="Group 1344">
        <path id="Path_3216" data-name="Path 3216" d="M376,269a15.006,15.006,0,0,1-13.418-8.291L346,227.545l-46.582,93.164a15,15,0,0,1-26.836,0L256,287.545l-16.582,33.164c-5.1,10.166-21.738,10.166-26.836,0L166,227.545l-16.582,33.164A15.006,15.006,0,0,1,136,269H28.037c30.873,48.574,86.474,94.713,156.024,153.413,19.526,16.479,40.3,34.014,62.109,52.925a15.022,15.022,0,0,0,19.658,0c21.812-18.911,42.583-36.445,62.109-52.925C397.488,363.713,453.088,317.574,483.961,269Z" fill="#fff"/>
      </g>
    </g>
  </g>
</svg>
