<svg xmlns="http://www.w3.org/2000/svg" width="612" height="343.176" viewBox="0 0 612 343.176">
  <g id="logistics" transform="translate(0 -134.412)">
    <g id="Group_1346" data-name="Group 1346">
      <path id="Path_3217" data-name="Path 3217" d="M226.764,375.35a51.119,51.119,0,1,0,51.078,51.16A51.1,51.1,0,0,0,226.764,375.35Zm0,76.7A25.54,25.54,0,1,1,252.3,426.508,25.568,25.568,0,0,1,226.764,452.049ZM612,337.561V392.1a24.635,24.635,0,0,1-24.636,24.635H561a67.6,67.6,0,0,0-133.772,0H293.625a67.55,67.55,0,0,0-133.689,0H126.924A24.634,24.634,0,0,1,102.289,392.1V337.561H612ZM494.143,375.35a51.119,51.119,0,1,0,51.077,51.16A51.167,51.167,0,0,0,494.143,375.35Zm0,76.7a25.54,25.54,0,1,1,25.539-25.541A25.567,25.567,0,0,1,494.143,452.049Zm108.15-169.412-96.817-95.751A32.911,32.911,0,0,0,482.4,177.36H433.54V159.047a24.6,24.6,0,0,0-24.635-24.635h-282a24.655,24.655,0,0,0-24.635,24.635v3.86L2.3,174.429,179.446,197.5,0,215.323l178.814,25.423L0,256.25l102.278,19.29-.007,48.4H611.983V305.958A33,33,0,0,0,602.293,282.637Zm-42.209,3.2h-93.7a3.855,3.855,0,0,1-3.86-3.859V209.633a3.856,3.856,0,0,1,3.86-3.86h17.82a4.164,4.164,0,0,1,2.71,1.068l75.8,72.347A3.853,3.853,0,0,1,560.084,285.839Z" fill="#fff"/>
    </g>
  </g>
</svg>
