<svg xmlns="http://www.w3.org/2000/svg" width="52.667" height="46.987" viewBox="0 0 52.667 46.987">
  <path id="Logo" d="M57.2,56a4.177,4.177,0,0,0-3.531,2.048l-11.137,19.4a4.23,4.23,0,0,0,0,4.1l11.137,19.4a4.176,4.176,0,0,0,3.531,2.048H79.47A4.177,4.177,0,0,0,83,100.939l11.137-19.4a4.231,4.231,0,0,0,0-4.1L83,58.048A4.176,4.176,0,0,0,79.47,56Zm.2,11.348a.486.486,0,0,1,.093,0h3.842a.506.506,0,0,1,.42.25l6.517,11.645a.5.5,0,0,1,.062.187.5.5,0,0,1,.062-.187L74.9,67.6a.509.509,0,0,1,.436-.25h3.842a.527.527,0,0,1,.436.735L73.248,79.494l6.362,11.4a.527.527,0,0,1-.436.75H75.332a.509.509,0,0,1-.436-.266L68.4,79.728a.5.5,0,0,1-.062-.187.5.5,0,0,1-.062.187L61.754,91.373a.508.508,0,0,1-.42.266H57.492a.527.527,0,0,1-.435-.75l6.362-11.4L57.057,68.083a.525.525,0,0,1,.342-.735Z" transform="translate(-42 -56)" fill="#fff" fill-rule="evenodd"/>
</svg>
