<svg xmlns="http://www.w3.org/2000/svg" width="65" height="65" viewBox="0 0 65 65">
  <g id="moodle" transform="translate(-201 -438)">
    <g id="Group_104" data-name="Group 104" transform="translate(0 66)">
      <rect id="Rectangle_43" data-name="Rectangle 43" width="65" height="65" transform="translate(201 372)" fill="#f98012"/>
    </g>
    <g id="moodle_logo_small" transform="translate(206 377.5)">
      <path id="Path_81" data-name="Path 81" d="M102.52,154.167V137.173c0-3.546-1.475-5.335-4.394-5.335q-4.4,0-4.409,5.335v16.994H85.071V137.173c0-3.546-1.444-5.335-4.331-5.335q-4.4,0-4.394,5.335v16.994H67.7v-18q0-5.555,3.86-8.411c2.26-1.695,5.335-2.558,9.2-2.558q5.861,0,8.646,3.013,2.4-3.013,8.725-3.013,5.79,0,9.18,2.558,3.86,2.848,3.86,8.411v18Z" transform="translate(-57.077 -42.744)" fill="#f7fafc"/>
      <path id="Path_87" data-name="Path 87" d="M27.414,81.153,36,74.877l-.11-.377C20.4,76.4,13.354,77.748,0,85.484l.126.345,1.067.016a54.679,54.679,0,0,0-.047,7.689c-1.475,4.284-.031,7.2,1.318,10.372a31.071,31.071,0,0,0-.816-10.5,53.955,53.955,0,0,1,.063-7.548l8.85.078a39.178,39.178,0,0,0,.267,5.194c7.909,2.777,15.865-.016,20.086-6.857A33.551,33.551,0,0,0,27.414,81.153Z" fill="#333"/>
    </g>
  </g>
</svg>
