<svg xmlns="http://www.w3.org/2000/svg" width="426.534" height="134.308" viewBox="0 0 426.534 134.308"><g transform="translate(-1254 -447)"><path d="M17.842-21.328v4.5H16.289l-.132-3H10.239V-1.479l2.388.19V0H6.094V-1.289l2.388-.19V-19.834H2.563l-.117,3H.879v-4.5Zm21.424,11H30.521v8.848H40.6l.132-3.193h1.553V0H26.39V-1.289l2.388-.19V-19.834l-2.388-.19v-1.3H42.21v4.688H40.658l-.132-3.193h-10v8.013h8.745Zm29.539-4.321H67.443l-.249-3.237a6.2,6.2,0,0,0-2.212-1.633,7.506,7.506,0,0,0-3.149-.623,6.937,6.937,0,0,0-5.684,2.6,10.322,10.322,0,0,0-2.109,6.716v.308a10.456,10.456,0,0,0,2.087,6.731,6.68,6.68,0,0,0,5.486,2.615,8.241,8.241,0,0,0,3.274-.63,6.043,6.043,0,0,0,2.307-1.626l.249-3.237h1.362v3.75A7.527,7.527,0,0,1,65.9-.615a9.728,9.728,0,0,1-4.285.923A8.435,8.435,0,0,1,54.9-2.732,11.535,11.535,0,0,1,52.3-10.518V-10.8a11.577,11.577,0,0,1,2.6-7.8,8.524,8.524,0,0,1,6.8-3.04,9.385,9.385,0,0,1,4.241.93A7.648,7.648,0,0,1,68.805-18.4Zm9.383-5.376v-1.3h6.519v1.3l-2.388.19v8.525H94.448v-8.525l-2.388-.19v-1.3h6.519v1.3l-2.388.19V-1.479l2.388.19V0H92.061V-1.289l2.388-.19V-9.814H82.32v8.335l2.388.19V0H78.189V-1.289l2.388-.19V-19.834Zm49.593-1.3v1.3l-2.388.19V0h-1.743L111.537-18.34l-.088.015V-1.479l2.388.19V0H107.3V-1.289l2.388-.19V-19.834l-2.388-.19v-1.3h4.146L123.563-3.018l.088-.015v-16.8l-2.388-.19v-1.3h6.519Zm27.459,10.811A11.635,11.635,0,0,1,152.678-2.7a8.341,8.341,0,0,1-6.665,3.01,8.165,8.165,0,0,1-6.57-3.018,11.751,11.751,0,0,1-2.527-7.808V-10.8a11.8,11.8,0,0,1,2.52-7.815A8.136,8.136,0,0,1,146-21.636a8.346,8.346,0,0,1,6.672,3.025,11.649,11.649,0,0,1,2.571,7.815Zm-1.758-.308a10.519,10.519,0,0,0-2.021-6.709A6.592,6.592,0,0,0,146-20.1a6.393,6.393,0,0,0-5.354,2.563,10.709,10.709,0,0,0-1.97,6.709v.308a10.732,10.732,0,0,0,1.978,6.738,6.412,6.412,0,0,0,5.361,2.563,6.569,6.569,0,0,0,5.471-2.556,10.642,10.642,0,0,0,2-6.746ZM164.507,0V-1.289l2.388-.19V-19.834l-2.388-.19v-1.3h6.533v1.3l-2.388.19V-1.479h8.862l.132-3H179.2V0Zm41.742-10.518A11.635,11.635,0,0,1,203.685-2.7,8.341,8.341,0,0,1,197.02.308a8.165,8.165,0,0,1-6.57-3.018,11.751,11.751,0,0,1-2.527-7.808V-10.8a11.8,11.8,0,0,1,2.52-7.815,8.136,8.136,0,0,1,6.563-3.025,8.346,8.346,0,0,1,6.672,3.025,11.649,11.649,0,0,1,2.571,7.815Zm-1.758-.308a10.519,10.519,0,0,0-2.021-6.709,6.592,6.592,0,0,0-5.464-2.563,6.393,6.393,0,0,0-5.354,2.563,10.709,10.709,0,0,0-1.97,6.709v.308a10.732,10.732,0,0,0,1.978,6.738,6.412,6.412,0,0,0,5.361,2.563,6.569,6.569,0,0,0,5.471-2.556,10.642,10.642,0,0,0,2-6.746Zm28.133,8.481a7.282,7.282,0,0,1-2.651,1.794,11.466,11.466,0,0,1-4.731.857,8.543,8.543,0,0,1-6.768-3,11.5,11.5,0,0,1-2.607-7.822v-.454a11.225,11.225,0,0,1,2.607-7.705,8.68,8.68,0,0,1,6.841-2.959,10.616,10.616,0,0,1,4.248.8,7.909,7.909,0,0,1,3,2.19v3.706H231.2l-.308-3.12a6.081,6.081,0,0,0-2.241-1.516,8.422,8.422,0,0,0-3.208-.564,7.016,7.016,0,0,0-5.728,2.549A10.044,10.044,0,0,0,217.624-11v.483a10.537,10.537,0,0,0,2.058,6.753,6.725,6.725,0,0,0,5.559,2.593,10.378,10.378,0,0,0,3.56-.542,5.694,5.694,0,0,0,2.08-1.157V-8.042l-4.1-.073V-9.536h5.845Zm10.584-17.681v-1.3h6.533v1.3l-2.388.19V-1.479l2.388.19V0h-6.533V-1.289l2.388-.19V-19.834Zm28.368,9.7h-8.745v8.848h10.078l.132-3.193h1.553V0H258.7V-1.289l2.388-.19V-19.834l-2.388-.19v-1.3h15.82v4.688h-1.553l-.132-3.193h-10v8.013h8.745ZM299.2-15h-1.436l-.249-3.018a5.238,5.238,0,0,0-2.153-1.56,8.31,8.31,0,0,0-3.193-.564A6.558,6.558,0,0,0,288.057-19a3.469,3.469,0,0,0-1.472,2.842,3.328,3.328,0,0,0,1.326,2.688,12.384,12.384,0,0,0,4.592,1.9A13.325,13.325,0,0,1,297.739-9.2a4.875,4.875,0,0,1,1.794,3.94,4.761,4.761,0,0,1-2.08,4.058A8.831,8.831,0,0,1,292.136.308,11.024,11.024,0,0,1,287.9-.5a8.1,8.1,0,0,1-3.2-2.3V-6.533h1.436l.249,3.12a6.112,6.112,0,0,0,2.476,1.67,9.192,9.192,0,0,0,3.281.571,6.87,6.87,0,0,0,4.08-1.113,3.452,3.452,0,0,0,1.56-2.944,3.565,3.565,0,0,0-1.3-2.849,12,12,0,0,0-4.541-1.956,14.362,14.362,0,0,1-5.3-2.285,4.561,4.561,0,0,1-1.8-3.794,4.763,4.763,0,0,1,2.051-3.984,8.579,8.579,0,0,1,5.288-1.538,10.18,10.18,0,0,1,4.153.806,7.2,7.2,0,0,1,2.878,2.183Z" transform="translate(1376 581)" fill="#fff"/><g transform="translate(1254 447)"><path d="M595,61.46v-7.5h-9.315V42.3l-.314.1-8.749,2.677-.172.052v8.836h-13.81V49.037a7.818,7.818,0,0,1,1.523-5.216,5.37,5.37,0,0,1,4.268-1.743,9.942,9.942,0,0,1,4.048.921l.344.153v-7.9l-.162-.059a15.78,15.78,0,0,0-5.174-.691,15.166,15.166,0,0,0-7.339,1.763,12.545,12.545,0,0,0-5.036,4.979,14.84,14.84,0,0,0-1.783,7.3v5.412h-6.486v7.5h6.486v31.6h9.311V61.46h13.81V81.542c0,8.271,3.9,12.462,11.6,12.462A19.021,19.021,0,0,0,592,93.566a10.922,10.922,0,0,0,2.88-.913L595,92.58V85.01l-.379.25a6.521,6.521,0,0,1-1.872.817,7.114,7.114,0,0,1-1.839.313,4.988,4.988,0,0,1-3.963-1.444c-.837-.967-1.261-2.658-1.261-5.024V61.46H595ZM526.05,86.391a9.878,9.878,0,0,1-7.922-3.328c-1.889-2.219-2.847-5.382-2.847-9.4,0-4.146.957-7.391,2.847-9.649a9.721,9.721,0,0,1,7.845-3.381,9.573,9.573,0,0,1,7.64,3.233c1.85,2.157,2.789,5.376,2.789,9.571,0,4.246-.883,7.508-2.624,9.69-1.729,2.165-4.33,3.265-7.729,3.265m.414-33.374c-6.448,0-11.569,1.889-15.221,5.616s-5.5,8.884-5.5,15.33c0,6.122,1.806,11.047,5.368,14.634S519.523,94,525.522,94c6.25,0,11.27-1.916,14.919-5.694s5.5-8.882,5.5-15.177c0-6.218-1.735-11.179-5.158-14.743s-8.243-5.373-14.317-5.373m-35.733,0a16.833,16.833,0,0,0-10.786,3.334,10.637,10.637,0,0,0-4.2,8.675,12.139,12.139,0,0,0,.906,4.849,9.741,9.741,0,0,0,2.783,3.635,24.216,24.216,0,0,0,5.66,3.166,42.174,42.174,0,0,1,4.707,2.193,6.544,6.544,0,0,1,2.073,1.7,3.82,3.82,0,0,1,.576,2.217c0,2.627-1.967,3.905-6.015,3.905a16.537,16.537,0,0,1-5.09-.932,19.123,19.123,0,0,1-5.213-2.643l-.387-.277v8.965l.142.066a23.065,23.065,0,0,0,4.936,1.525,26.478,26.478,0,0,0,5.272.609c4.759,0,8.592-1.127,11.389-3.352a10.845,10.845,0,0,0,4.241-8.881,10.214,10.214,0,0,0-2.281-6.719c-1.5-1.808-4.112-3.468-7.751-4.935-2.9-1.164-4.756-2.129-5.522-2.871a4.018,4.018,0,0,1-1.114-3.012,3.356,3.356,0,0,1,1.413-2.786,6.351,6.351,0,0,1,3.963-1.119,16.221,16.221,0,0,1,4.717.725,15.16,15.16,0,0,1,4.12,1.91l.38.26v-8.5l-.146-.063a20.313,20.313,0,0,0-4.183-1.167,25.536,25.536,0,0,0-4.587-.475M451.469,86.391a9.877,9.877,0,0,1-7.922-3.328c-1.89-2.219-2.845-5.381-2.845-9.4,0-4.146.957-7.391,2.847-9.649a9.715,9.715,0,0,1,7.845-3.381,9.573,9.573,0,0,1,7.639,3.233c1.851,2.157,2.789,5.376,2.789,9.571,0,4.246-.883,7.508-2.625,9.69-1.729,2.165-4.328,3.265-7.729,3.265m.415-33.374c-6.449,0-11.571,1.889-15.221,5.616s-5.5,8.884-5.5,15.33c0,6.125,1.807,11.047,5.37,14.634S444.943,94,450.941,94c6.249,0,11.27-1.916,14.92-5.694s5.5-8.882,5.5-15.177c0-6.218-1.735-11.179-5.16-14.743s-8.243-5.373-14.315-5.373m-34.855,7.714V53.959h-9.2v39.1h9.2v-20a13.941,13.941,0,0,1,2.293-8.306,7.032,7.032,0,0,1,5.949-3.142,10.8,10.8,0,0,1,2.766.407,7,7,0,0,1,2.145.867l.387.28V53.892l-.149-.064a9.522,9.522,0,0,0-3.6-.548,9.425,9.425,0,0,0-6.152,2.2,12.459,12.459,0,0,0-3.539,5.245Zm-25.67-7.714a22.7,22.7,0,0,0-11.185,2.689,18.116,18.116,0,0,0-7.377,7.586,24.16,24.16,0,0,0-2.534,11.237A20.731,20.731,0,0,0,372.726,84.6a17.305,17.305,0,0,0,6.883,6.959A20.489,20.489,0,0,0,389.664,94a22.017,22.017,0,0,0,11.1-2.6l.121-.069V82.911l-.387.282a17.29,17.29,0,0,1-4.5,2.343,13.6,13.6,0,0,1-4.408.854,11.326,11.326,0,0,1-8.609-3.356c-2.108-2.229-3.176-5.36-3.176-9.3,0-3.964,1.114-7.175,3.311-9.544a11.265,11.265,0,0,1,8.627-3.56,14.773,14.773,0,0,1,8.756,3.045l.386.28V55.078l-.125-.07a15.178,15.178,0,0,0-4.255-1.44,25.418,25.418,0,0,0-5.142-.552m-27.431.942h-9.2v39.1h9.2Zm-4.5-16.657a5.541,5.541,0,0,0-3.919,1.537,5.07,5.07,0,0,0-1.642,3.835,4.927,4.927,0,0,0,1.625,3.761,5.6,5.6,0,0,0,3.936,1.5,5.673,5.673,0,0,0,3.954-1.5,4.907,4.907,0,0,0,1.645-3.762,5.167,5.167,0,0,0-1.6-3.794,5.487,5.487,0,0,0-4-1.578M336.474,51.074V93.061h9.387V38.5H332.869L316.356,79.026,300.331,38.5H286.81V93.06h8.821V51.07h.3l16.922,41.99h6.657l16.658-41.986h.3Z" transform="translate(-168.47 -20.266)" fill="#fff"/><path d="M43.269,43.269H0V0H43.269Z" fill="#f1511b"/><path d="M159.057,43.269H115.788V0h43.269Z" transform="translate(-68.013)" fill="#80cc28"/><path d="M43.268,159.1H0V115.828H43.268Z" transform="translate(0 -68.036)" fill="#00adef"/><path d="M159.057,159.1H115.788V115.828h43.269Z" transform="translate(-68.013 -68.036)" fill="#fbbc09"/></g></g></svg>