<svg xmlns="http://www.w3.org/2000/svg" width="330.275" height="42.646" viewBox="0 0 330.275 42.646">
  <g id="tillid_text" transform="translate(-661.65 -26.05)">
    <path id="Path_3211" data-name="Path 3211" d="M5.375,0h2.9V-13.9H13v-2.45H.65v2.45H5.375Zm10.1,0H18.35V-12.275H15.475Zm1.45-14.425A1.646,1.646,0,0,0,18.7-16.05a1.651,1.651,0,0,0-1.775-1.65,1.651,1.651,0,0,0-1.775,1.65A1.646,1.646,0,0,0,16.925-14.425ZM24.825.3A3.925,3.925,0,0,0,26.35.05L25.975-2.1a1.722,1.722,0,0,1-.45.05c-.3,0-.625-.25-.625-.95V-17.65H22.025v14.5C22.025-1.025,22.775.3,24.825.3ZM31.6.3A3.925,3.925,0,0,0,33.125.05L32.75-2.1a1.722,1.722,0,0,1-.45.05c-.3,0-.625-.25-.625-.95V-17.65H28.8v14.5C28.8-1.025,29.55.3,31.6.3ZM35.575,0H38.45V-12.275H35.575Zm1.45-14.425A1.646,1.646,0,0,0,38.8-16.05a1.651,1.651,0,0,0-1.775-1.65,1.651,1.651,0,0,0-1.775,1.65A1.646,1.646,0,0,0,37.025-14.425ZM46.425.3A5.115,5.115,0,0,0,49.9-1.325H50L50.2,0h2.375V-17.65H49.7v4.45l.1,1.975a4.532,4.532,0,0,0-3.225-1.35c-2.675,0-5.2,2.45-5.2,6.45C41.375-2.075,43.35.3,46.425.3Zm.7-2.375C45.35-2.075,44.35-3.5,44.35-6.15c0-2.575,1.275-4.05,2.85-4.05a3.66,3.66,0,0,1,2.5,1.025V-3.45A3.314,3.314,0,0,1,47.125-2.075ZM66.25.3c3.675,0,5.875-2.2,5.875-4.85,0-2.375-1.375-3.6-3.3-4.425L66.6-9.9c-1.35-.55-2.6-1.025-2.6-2.3,0-1.2,1.025-1.925,2.575-1.925a5.328,5.328,0,0,1,3.55,1.4l1.475-1.85a7.217,7.217,0,0,0-5.025-2.075c-3.2,0-5.5,2-5.5,4.6,0,2.4,1.7,3.675,3.3,4.35l2.25.975c1.475.625,2.525,1.05,2.525,2.4,0,1.275-1,2.1-2.85,2.1a6.5,6.5,0,0,1-4.25-1.85L60.35-2.1A8.469,8.469,0,0,0,66.25.3ZM79.875.3c3.075,0,5.85-2.35,5.85-6.425,0-4.1-2.775-6.45-5.85-6.45-3.05,0-5.825,2.35-5.825,6.45C74.05-2.05,76.825.3,79.875.3Zm0-2.35C78.075-2.05,77-3.675,77-6.125c0-2.475,1.075-4.1,2.875-4.1s2.9,1.625,2.9,4.1C82.775-3.675,81.675-2.05,79.875-2.05ZM88.975,0H91.85V-10h4.075v5.85C95.925-1.5,96.975.3,99.8.3a7.872,7.872,0,0,0,2.525-.45l-.5-2.125A3.519,3.519,0,0,1,100.55-2c-1.175,0-1.75-.7-1.75-2.15V-10h3.15v-2.275H98.8v-3.35H96.425l-.35,3.35H91.85V-13.6c0-1.425.55-2.075,1.55-2.075a3.39,3.39,0,0,1,1.35.3l.55-2.15a6.213,6.213,0,0,0-2.25-.425c-2.9,0-4.075,1.85-4.075,4.4v1.275l-1.65.125V-10h1.65ZM106.55,0h3.3l1.4-5.7c.275-1.15.5-2.3.725-3.6h.1c.275,1.3.475,2.425.75,3.575L114.25,0h3.425L120.8-12.275h-2.7L116.625-5.9c-.225,1.175-.425,2.325-.65,3.525h-.1c-.275-1.2-.525-2.35-.825-3.525l-1.625-6.375H110.8L109.2-5.9c-.3,1.15-.55,2.325-.775,3.525h-.1c-.225-1.2-.4-2.35-.65-3.525L106.2-12.275h-2.9Zm19.4.3a5.976,5.976,0,0,0,3.8-1.65h.1l.2,1.35h2.375V-7.275c0-3.425-1.525-5.3-4.575-5.3a9.6,9.6,0,0,0-5.05,1.6l1.05,1.925a6.994,6.994,0,0,1,3.45-1.2c1.675,0,2.2,1.1,2.25,2.4-5.05.55-7.225,1.925-7.225,4.55A3.431,3.431,0,0,0,125.95.3Zm.925-2.25c-1.025,0-1.775-.475-1.775-1.575,0-1.225,1.1-2.1,4.45-2.525V-3.3A3.9,3.9,0,0,1,126.875-1.95Zm9,1.95h2.875V-7.5c.75-1.85,1.925-2.525,2.9-2.525a4.012,4.012,0,0,1,1.275.2l.5-2.5a3.119,3.119,0,0,0-1.4-.25A4.17,4.17,0,0,0,138.55-10.1h-.1l-.2-2.175h-2.375ZM150.2.3a7.745,7.745,0,0,0,4.2-1.325l-.975-1.8a5.128,5.128,0,0,1-2.85.9A3.513,3.513,0,0,1,146.95-5.35h7.8a6.7,6.7,0,0,0,.125-1.4c0-3.425-1.75-5.825-5.075-5.825-2.875,0-5.65,2.45-5.65,6.45C144.15-2.075,146.8.3,150.2.3Zm-3.275-7.6c.25-1.975,1.5-3.05,2.95-3.05,1.675,0,2.5,1.15,2.5,3.05ZM167.65.3c3.675,0,5.875-2.2,5.875-4.85,0-2.375-1.375-3.6-3.3-4.425L168-9.9c-1.35-.55-2.6-1.025-2.6-2.3,0-1.2,1.025-1.925,2.575-1.925a5.328,5.328,0,0,1,3.55,1.4L173-14.575a7.217,7.217,0,0,0-5.025-2.075c-3.2,0-5.5,2-5.5,4.6,0,2.4,1.7,3.675,3.3,4.35l2.25.975c1.475.625,2.525,1.05,2.525,2.4,0,1.275-1,2.1-2.85,2.1a6.5,6.5,0,0,1-4.25-1.85L161.75-2.1A8.469,8.469,0,0,0,167.65.3Zm13.625,0c3.075,0,5.85-2.35,5.85-6.425,0-4.1-2.775-6.45-5.85-6.45-3.05,0-5.825,2.35-5.825,6.45C175.45-2.05,178.225.3,181.275.3Zm0-2.35c-1.8,0-2.875-1.625-2.875-4.075,0-2.475,1.075-4.1,2.875-4.1s2.9,1.625,2.9,4.1C184.175-3.675,183.075-2.05,181.275-2.05ZM192.775.3A3.925,3.925,0,0,0,194.3.05l-.375-2.15a1.722,1.722,0,0,1-.45.05c-.3,0-.625-.25-.625-.95V-17.65h-2.875v14.5C189.975-1.025,190.725.3,192.775.3ZM200.4.3a5,5,0,0,0,3.95-2.1h.075L204.65,0H207V-12.275h-2.875v8.4c-.925,1.2-1.65,1.7-2.725,1.7-1.325,0-1.9-.75-1.9-2.775v-7.325h-2.875v7.7C196.625-1.475,197.775.3,200.4.3Zm14.575,0a7.84,7.84,0,0,0,2.5-.45l-.5-2.125A3.519,3.519,0,0,1,215.7-2c-1.175,0-1.725-.7-1.725-2.15V-10H217.1v-2.275h-3.125v-3.35h-2.4l-.35,3.35-1.9.125V-10h1.75v5.85C211.075-1.5,212.125.3,214.975.3Zm4.7-.3h2.875V-12.275h-2.875Zm1.45-14.425A1.646,1.646,0,0,0,222.9-16.05a1.651,1.651,0,0,0-1.775-1.65,1.651,1.651,0,0,0-1.775,1.65A1.646,1.646,0,0,0,221.125-14.425ZM231.25.3c3.075,0,5.85-2.35,5.85-6.425,0-4.1-2.775-6.45-5.85-6.45-3.05,0-5.825,2.35-5.825,6.45C225.425-2.05,228.2.3,231.25.3Zm0-2.35c-1.8,0-2.875-1.625-2.875-4.075,0-2.475,1.075-4.1,2.875-4.1s2.9,1.625,2.9,4.1C234.15-3.675,233.05-2.05,231.25-2.05ZM239.95,0h2.875V-8.575c1.025-1,1.725-1.525,2.8-1.525,1.35,0,1.925.75,1.925,2.775V0h2.875V-7.7c0-3.1-1.15-4.875-3.775-4.875a5.7,5.7,0,0,0-4.025,1.95h-.1l-.2-1.65H239.95ZM259.2,0h2.9V-6h2.35c3.525,0,6.225-1.675,6.225-5.3,0-3.8-2.7-5.05-6.325-5.05H259.2Zm2.9-8.325v-5.7h2.025c2.425,0,3.7.675,3.7,2.725,0,2-1.175,2.975-3.6,2.975ZM276.25,0h3.325l4.175-12.275h-2.775L279.025-5.9c-.35,1.2-.7,2.45-1.05,3.7h-.1c-.325-1.25-.7-2.5-1.025-3.7l-1.95-6.375h-2.925ZM290.2.3a7.84,7.84,0,0,0,2.5-.45l-.5-2.125A3.52,3.52,0,0,1,290.925-2c-1.175,0-1.725-.7-1.725-2.15V-10h3.125v-2.275H289.2v-3.35h-2.4l-.35,3.35-1.9.125V-10h1.75v5.85C286.3-1.5,287.35.3,290.2.3Zm9.95-.3h9.7V-2.45h-6.8v-13.9h-2.9Zm16.025.3a7.84,7.84,0,0,0,2.5-.45l-.5-2.125A3.52,3.52,0,0,1,316.9-2c-1.175,0-1.725-.7-1.725-2.15V-10H318.3v-2.275h-3.125v-3.35h-2.4l-.35,3.35-1.9.125V-10h1.75v5.85C312.275-1.5,313.325.3,316.175.3Zm8.6,0a5.115,5.115,0,0,0,3.475-1.625h.1L328.55,0h2.375V-17.65H328.05v4.45l.1,1.975a4.532,4.532,0,0,0-3.225-1.35c-2.675,0-5.2,2.45-5.2,6.45C319.725-2.075,321.7.3,324.775.3Zm.7-2.375C323.7-2.075,322.7-3.5,322.7-6.15c0-2.575,1.275-4.05,2.85-4.05a3.66,3.66,0,0,1,2.5,1.025V-3.45A3.314,3.314,0,0,1,325.475-2.075Z" transform="translate(661 44)" fill="#282828"/>
    <path id="Path_3212" data-name="Path 3212" d="M3.824,0H4.56V-9.9H7.92v-.64H.464v.64h3.36ZM15.7.192c1.856,0,3.456-1.472,3.456-4.016,0-2.576-1.6-4.048-3.456-4.048-1.84,0-3.44,1.472-3.44,4.048C12.256-1.28,13.856.192,15.7.192Zm0-.624c-1.552,0-2.7-1.376-2.7-3.392,0-2.032,1.152-3.424,2.7-3.424s2.72,1.392,2.72,3.424C18.416-1.808,17.248-.432,15.7-.432ZM27.968,3.7C30.176,3.7,31.6,2.432,31.6,1.1c0-1.216-.8-1.76-2.528-1.76H27.424c-1.152,0-1.472-.448-1.472-1.008a1.382,1.382,0,0,1,.624-1.1,2.664,2.664,0,0,0,1.28.32,2.625,2.625,0,0,0,2.672-2.7,2.555,2.555,0,0,0-.848-1.936h1.792V-7.68H28.864a2.748,2.748,0,0,0-1.008-.192,2.642,2.642,0,0,0-2.7,2.7,2.868,2.868,0,0,0,.96,2.112v.064a1.806,1.806,0,0,0-.832,1.408,1.369,1.369,0,0,0,.672,1.232v.064a2.423,2.423,0,0,0-1.136,1.856C24.816,2.864,26.032,3.7,27.968,3.7Zm-.112-6.7a2.041,2.041,0,0,1-2-2.16,2,2,0,0,1,2-2.128A1.992,1.992,0,0,1,29.84-5.168,2.039,2.039,0,0,1,27.856-3.008Zm.192,6.128c-1.632,0-2.56-.656-2.56-1.616A2.007,2.007,0,0,1,26.5-.112a4.756,4.756,0,0,0,.96.128H29.1c1.152,0,1.776.32,1.776,1.168C30.88,2.144,29.776,3.12,28.048,3.12ZM39.984.192A4.282,4.282,0,0,0,42.4-.56L42.112-1.1a3.4,3.4,0,0,1-2.064.688c-1.728,0-2.864-1.392-2.9-3.328h5.536a3.478,3.478,0,0,0,.032-.576c0-2.256-1.12-3.552-2.944-3.552-1.712,0-3.344,1.536-3.344,4.048S38.016.192,39.984.192ZM37.152-4.32c.16-1.84,1.328-2.944,2.64-2.944,1.376,0,2.256.976,2.256,2.944ZM50.736.192A4.288,4.288,0,0,0,51.984-.1l-.192-.576a2.572,2.572,0,0,1-.96.24c-1.056,0-1.3-.656-1.3-1.632V-7.072H51.76V-7.68H49.536V-9.9h-.608l-.1,2.224-1.216.064v.544h1.2v4.944C48.816-.752,49.248.192,50.736.192ZM57.632,0h.7V-5.792c.944-.96,1.6-1.44,2.512-1.44,1.248,0,1.76.768,1.76,2.4V0h.7V-4.928c0-1.984-.736-2.944-2.32-2.944A3.773,3.773,0,0,0,58.336-6.48V-11.5h-.7Zm15.36.192A4.282,4.282,0,0,0,75.408-.56L75.12-1.1a3.4,3.4,0,0,1-2.064.688c-1.728,0-2.864-1.392-2.9-3.328H75.7a3.477,3.477,0,0,0,.032-.576c0-2.256-1.12-3.552-2.944-3.552-1.712,0-3.344,1.536-3.344,4.048S71.024.192,72.992.192ZM70.16-4.32c.16-1.84,1.328-2.944,2.64-2.944,1.376,0,2.256.976,2.256,2.944ZM81.808,0h.7V-5.232C83.1-6.672,83.92-7.2,84.608-7.2a1.674,1.674,0,0,1,.7.128l.16-.64a1.581,1.581,0,0,0-.768-.16,2.635,2.635,0,0,0-2.176,1.616H82.48L82.416-7.68h-.608ZM99.264,0h.848l1.328-4.736c.24-.736.432-1.472.608-2.224h.064c.224.752.368,1.456.592,2.192L104.048,0h.928l2.208-7.68h-.72L105.1-2.7c-.176.7-.368,1.36-.544,2.048H104.5C104.3-1.344,104.112-2,103.92-2.7L102.528-7.68h-.848L100.288-2.7c-.192.7-.384,1.36-.56,2.048h-.064C99.5-1.344,99.328-2,99.136-2.7L97.76-7.68h-.768Zm16.688.192a4.282,4.282,0,0,0,2.416-.752L118.08-1.1a3.4,3.4,0,0,1-2.064.688c-1.728,0-2.864-1.392-2.9-3.328h5.536a3.477,3.477,0,0,0,.032-.576c0-2.256-1.12-3.552-2.944-3.552-1.712,0-3.344,1.536-3.344,4.048S113.984.192,115.952.192ZM113.12-4.32c.16-1.84,1.328-2.944,2.64-2.944,1.376,0,2.256.976,2.256,2.944ZM134.512.192a3.6,3.6,0,0,0,2.5-1.184h.048L137.12,0h.608V-11.5h-.7v3.168l.032,1.408a3.548,3.548,0,0,0-2.32-.944c-1.824,0-3.408,1.568-3.408,4.048C131.328-1.232,132.576.192,134.512.192Zm.1-.624c-1.632,0-2.528-1.36-2.528-3.392,0-1.936,1.168-3.424,2.7-3.424a3.248,3.248,0,0,1,2.24.992V-1.7A3.468,3.468,0,0,1,134.608-.432ZM144.672,0h.7V-7.68h-.7Zm.368-9.536a.618.618,0,0,0,.64-.624.613.613,0,0,0-.64-.64.613.613,0,0,0-.64.64A.618.618,0,0,0,145.04-9.536ZM154.848,3.7c2.208,0,3.632-1.264,3.632-2.592,0-1.216-.8-1.76-2.528-1.76H154.3c-1.152,0-1.472-.448-1.472-1.008a1.382,1.382,0,0,1,.624-1.1,2.664,2.664,0,0,0,1.28.32,2.625,2.625,0,0,0,2.672-2.7,2.555,2.555,0,0,0-.848-1.936h1.792V-7.68h-2.608a2.748,2.748,0,0,0-1.008-.192,2.642,2.642,0,0,0-2.7,2.7,2.868,2.868,0,0,0,.96,2.112v.064a1.806,1.806,0,0,0-.832,1.408,1.369,1.369,0,0,0,.672,1.232v.064A2.423,2.423,0,0,0,151.7,1.568C151.7,2.864,152.912,3.7,154.848,3.7Zm-.112-6.7a2.041,2.041,0,0,1-2-2.16,2,2,0,0,1,2-2.128,1.992,1.992,0,0,1,1.984,2.128A2.039,2.039,0,0,1,154.736-3.008Zm.192,6.128c-1.632,0-2.56-.656-2.56-1.616a2.008,2.008,0,0,1,1.008-1.616,4.756,4.756,0,0,0,.96.128h1.648c1.152,0,1.776.32,1.776,1.168C157.76,2.144,156.656,3.12,154.928,3.12Zm9.2-3.12h.7V-7.68h-.7Zm.368-9.536a.618.618,0,0,0,.64-.624.613.613,0,0,0-.64-.64.613.613,0,0,0-.64.64A.618.618,0,0,0,164.5-9.536ZM173.888.192A4.288,4.288,0,0,0,175.136-.1l-.192-.576a2.572,2.572,0,0,1-.96.24c-1.056,0-1.3-.656-1.3-1.632V-7.072h2.224V-7.68h-2.224V-9.9h-.608l-.1,2.224-1.216.064v.544h1.2v4.944C171.968-.752,172.4.192,173.888.192Zm8.224,0a4.558,4.558,0,0,0,2.72-1.184h.048l.064.992h.608V-4.912c0-1.648-.624-2.96-2.432-2.96a5.185,5.185,0,0,0-2.864.992l.32.528a4.327,4.327,0,0,1,2.448-.9c1.52,0,1.84,1.264,1.824,2.432-3.424.384-4.96,1.2-4.96,2.9A2.01,2.01,0,0,0,182.112.192Zm.128-.608a1.453,1.453,0,0,1-1.632-1.536c0-1.216,1.072-1.952,4.24-2.32v2.608A4.058,4.058,0,0,1,182.24-.416Zm10.992.608a1.493,1.493,0,0,0,.512-.08l-.128-.576a1.238,1.238,0,0,1-.288.032c-.192,0-.336-.16-.336-.5V-11.5h-.7v10.48C192.288-.192,192.608.192,193.232.192ZM200.08,0h.7V-7.68h-.7Zm.368-9.536a.618.618,0,0,0,.64-.624.613.613,0,0,0-.64-.64.613.613,0,0,0-.64.64A.618.618,0,0,0,200.448-9.536ZM206.7,0h5.616V-.624h-4.688l4.528-6.688V-7.68H207.2v.608h4.048L206.7-.384ZM220.96.192a4.282,4.282,0,0,0,2.416-.752l-.288-.544a3.4,3.4,0,0,1-2.064.688c-1.728,0-2.864-1.392-2.9-3.328h5.536a3.478,3.478,0,0,0,.032-.576c0-2.256-1.12-3.552-2.944-3.552-1.712,0-3.344,1.536-3.344,4.048S218.992.192,220.96.192ZM218.128-4.32c.16-1.84,1.328-2.944,2.64-2.944,1.376,0,2.256.976,2.256,2.944ZM239.072.192A4.288,4.288,0,0,0,240.32-.1l-.192-.576a2.572,2.572,0,0,1-.96.24c-1.056,0-1.3-.656-1.3-1.632V-7.072H240.1V-7.68h-2.224V-9.9h-.608l-.1,2.224-1.216.064v.544h1.2v4.944C237.152-.752,237.584.192,239.072.192Zm6.9-.192h.7V-5.792c.944-.96,1.6-1.44,2.512-1.44,1.248,0,1.76.768,1.76,2.4V0h.7V-4.928c0-1.984-.736-2.944-2.32-2.944a3.773,3.773,0,0,0-2.656,1.392V-11.5h-.7Zm15.36.192a4.282,4.282,0,0,0,2.416-.752l-.288-.544a3.4,3.4,0,0,1-2.064.688c-1.728,0-2.864-1.392-2.9-3.328h5.536a3.48,3.48,0,0,0,.032-.576c0-2.256-1.12-3.552-2.944-3.552-1.712,0-3.344,1.536-3.344,4.048S259.36.192,261.328.192ZM258.5-4.32c.16-1.84,1.328-2.944,2.64-2.944,1.376,0,2.256.976,2.256,2.944ZM278.528,0h.848L280.7-4.736c.24-.736.432-1.472.608-2.224h.064c.224.752.368,1.456.592,2.192L283.312,0h.928l2.208-7.68h-.72L284.368-2.7c-.176.7-.368,1.36-.544,2.048h-.064c-.192-.688-.384-1.344-.576-2.048L281.792-7.68h-.848L279.552-2.7c-.192.7-.384,1.36-.56,2.048h-.064c-.16-.688-.336-1.344-.528-2.048L277.024-7.68h-.768ZM295.1.192c1.856,0,3.456-1.472,3.456-4.016,0-2.576-1.6-4.048-3.456-4.048-1.84,0-3.44,1.472-3.44,4.048C291.664-1.28,293.264.192,295.1.192Zm0-.624c-1.552,0-2.7-1.376-2.7-3.392,0-2.032,1.152-3.424,2.7-3.424s2.72,1.392,2.72,3.424C297.824-1.808,296.656-.432,295.1-.432Zm9.76.432h.7V-5.232c.592-1.44,1.408-1.968,2.1-1.968a1.674,1.674,0,0,1,.7.128l.16-.64a1.581,1.581,0,0,0-.768-.16,2.635,2.635,0,0,0-2.176,1.616h-.048l-.064-1.424h-.608ZM314.88.192a1.493,1.493,0,0,0,.512-.08l-.128-.576a1.238,1.238,0,0,1-.288.032c-.192,0-.336-.16-.336-.5V-11.5h-.7v10.48C313.936-.192,314.256.192,314.88.192Zm9.392,0a3.6,3.6,0,0,0,2.5-1.184h.048L326.88,0h.608V-11.5h-.7v3.168l.032,1.408a3.548,3.548,0,0,0-2.32-.944c-1.824,0-3.408,1.568-3.408,4.048C321.088-1.232,322.336.192,324.272.192Zm.1-.624c-1.632,0-2.528-1.36-2.528-3.392,0-1.936,1.168-3.424,2.7-3.424a3.248,3.248,0,0,1,2.24.992V-1.7A3.468,3.468,0,0,1,324.368-.432Z" transform="translate(663 65)" fill="#282828" opacity="0.48"/>
  </g>
</svg>
