<svg xmlns="http://www.w3.org/2000/svg" xmlns:xlink="http://www.w3.org/1999/xlink" width="53.478" height="53.478" viewBox="0 0 53.478 53.478">
  <defs>
    <clipPath id="clip-path">
      <path id="Path_94" data-name="Path 94" d="M0,0H53.478V53.478H0Z" fill="#fff"/>
    </clipPath>
  </defs>
  <g id="wordpress-blue" clip-path="url(#clip-path)">
    <path id="Path_89" data-name="Path 89" d="M208.529,41.535h-9.278v.984c2.9,0,3.369.622,3.369,4.3v6.635c0,3.68-.466,4.354-3.369,4.354-2.228-.311-3.732-1.5-5.805-3.784l-2.384-2.591c3.213-.571,4.923-2.592,4.923-4.873,0-2.85-2.436-5.027-7-5.027h-9.122v.984c2.9,0,3.369.622,3.369,4.3v6.635c0,3.68-.466,4.354-3.369,4.354V58.8H190.18V57.81c-2.9,0-3.369-.674-3.369-4.354V51.591h.881l5.754,7.2H208.53c7.412,0,10.626-3.939,10.626-8.656s-3.214-8.6-10.626-8.6Zm-21.717,8.448V43.09h2.125a3.179,3.179,0,0,1,3.369,3.473,3.164,3.164,0,0,1-3.369,3.421Zm21.873,7.205h-.363c-1.866,0-2.125-.466-2.125-2.85V43.09h2.488c5.39,0,6.374,3.939,6.374,7C215.06,53.248,214.075,57.188,208.685,57.188ZM151,51.9l3.576-10.575c1.037-3.058.571-3.938-2.747-3.938V36.351h9.744v1.037c-3.265,0-4.043.777-5.338,4.561l-5.909,17.727h-.673l-5.287-16.224-5.39,16.224H138.3l-5.753-17.727c-1.244-3.784-2.073-4.561-5.08-4.561V36.351h11.507v1.037c-3.059,0-3.888.725-2.8,3.938L139.644,51.9l5.235-15.55h.986Zm17.622,7.567c-5.7,0-10.366-4.2-10.366-9.33,0-5.08,4.665-9.278,10.366-9.278s10.366,4.2,10.366,9.278C178.985,55.27,174.32,59.468,168.619,59.468Zm0-17c-4.768,0-6.428,4.3-6.428,7.671,0,3.422,1.659,7.672,6.428,7.672,4.821,0,6.48-4.25,6.48-7.672C175.1,46.769,173.439,42.468,168.619,42.468Z" transform="translate(-71.829 -20.485)" fill="#fff"/>
    <path id="Path_90" data-name="Path 90" d="M351.54,57.757v1.037H339.67V57.757c3.473,0,4.1-.881,4.1-6.065V43.4c0-5.184-.622-6.012-4.1-6.012V36.35H350.4c5.338,0,8.294,2.747,8.294,6.428,0,3.576-2.955,6.375-8.294,6.375h-2.955v2.539c0,5.184.622,6.065,4.1,6.065ZM350.4,38.216h-2.955v9.019H350.4c2.9,0,4.25-2.021,4.25-4.457C354.649,40.29,353.3,38.216,350.4,38.216Zm43.9,15.706-.26.933c-.466,1.711-1.037,2.333-4.717,2.333H388.6c-2.695,0-3.161-.622-3.161-4.3V50.5c4.043,0,4.354.362,4.354,3.058h.985V45.836h-.985c0,2.7-.311,3.058-4.354,3.058v-5.8h2.85c3.681,0,4.25.622,4.717,2.333l.26.985h.828l-.362-4.872H378.491v.984c2.9,0,3.369.622,3.369,4.3v6.635c0,3.367-.4,4.215-2.684,4.336-2.175-.333-3.668-1.519-5.711-3.766l-2.384-2.591c3.214-.571,4.924-2.592,4.924-4.873,0-2.85-2.436-5.027-7-5.027h-9.122v.984c2.9,0,3.369.622,3.369,4.3v6.635c0,3.68-.466,4.354-3.369,4.354v.985H370.2V57.81c-2.9,0-3.369-.674-3.369-4.354V51.59h.882l5.753,7.2h21.3l.311-4.872H394.3Zm-27.471-3.94V43.089h2.125a3.179,3.179,0,0,1,3.37,3.473,3.164,3.164,0,0,1-3.37,3.421Zm37.992,9.486a7.663,7.663,0,0,1-4.665-1.762,3.72,3.72,0,0,0-.829,1.762h-.985V52.315h1.037a5.752,5.752,0,0,0,5.857,5.442c1.659,0,3.006-.933,3.006-2.487,0-1.347-1.192-2.384-3.317-3.369l-2.955-1.4c-2.074-.986-3.628-2.7-3.628-4.976,0-2.488,2.333-4.613,5.546-4.613a6.491,6.491,0,0,1,4.043,1.348,2.928,2.928,0,0,0,.674-1.4h.985v6.117H408.5c-.363-2.436-1.711-4.458-4.457-4.458-1.451,0-2.8.829-2.8,2.126,0,1.347,1.088,2.073,3.577,3.213l2.85,1.4c2.488,1.192,3.473,3.111,3.473,4.666C411.146,57.187,408.3,59.468,404.822,59.468Zm15.964,0a7.661,7.661,0,0,1-4.665-1.762,3.72,3.72,0,0,0-.828,1.762h-.985V52.315h1.037a5.751,5.751,0,0,0,5.857,5.442c1.659,0,3.006-.933,3.006-2.487,0-1.347-1.192-2.384-3.318-3.369l-2.955-1.4c-2.073-.986-3.628-2.7-3.628-4.976,0-2.488,2.333-4.613,5.546-4.613A6.492,6.492,0,0,1,423.9,42.26a2.924,2.924,0,0,0,.673-1.4h.985v6.117h-1.088c-.363-2.436-1.711-4.458-4.457-4.458-1.451,0-2.8.829-2.8,2.126,0,1.347,1.089,2.073,3.577,3.213l2.85,1.4c2.488,1.192,3.472,3.111,3.472,4.666,0,3.265-2.851,5.545-6.323,5.545Z" transform="translate(-191.412 -20.484)" fill="#fff"/>
    <g id="Group_102" data-name="Group 102">
      <path id="Path_91" data-name="Path 91" d="M8.708,31.646A22.943,22.943,0,0,0,21.636,52.291L10.694,22.31A22.851,22.851,0,0,0,8.708,31.646Zm38.424-1.158a12.077,12.077,0,0,0-1.892-6.326c-1.163-1.89-2.252-3.49-2.252-5.379a3.972,3.972,0,0,1,3.851-4.071c.1,0,.2.013.3.018a22.934,22.934,0,0,0-34.656,4.318c.538.016,1.046.027,1.476.027,2.4,0,6.113-.291,6.113-.291a.948.948,0,0,1,.148,1.89s-1.243.146-2.626.219l8.353,24.846,5.02-15.055-3.574-9.791c-1.235-.072-2.405-.219-2.405-.219a.948.948,0,0,1,.145-1.89s3.788.291,6.042.291c2.4,0,6.113-.291,6.113-.291a.948.948,0,0,1,.147,1.89s-1.245.146-2.625.219L43.1,45.549,45.385,37.9c.992-3.173,1.747-5.452,1.747-7.415Z" transform="translate(-4.907 -4.907)" fill="#fff"/>
      <path id="Path_92" data-name="Path 92" d="M53.3,49.058l-6.882,20a22.945,22.945,0,0,0,14.1-.365,1.943,1.943,0,0,1-.163-.316ZM73.024,36.046a17.605,17.605,0,0,1,.155,2.359,21.638,21.638,0,0,1-1.744,8.216L64.427,66.879a22.943,22.943,0,0,0,8.6-30.833Z" transform="translate(-26.156 -20.313)" fill="#fff"/>
      <path id="Path_93" data-name="Path 93" d="M26.739,0A26.739,26.739,0,1,0,53.48,26.739,26.77,26.77,0,0,0,26.739,0Zm0,52.253A25.513,25.513,0,1,1,52.251,26.739,25.543,25.543,0,0,1,26.739,52.253Z" fill="#fff"/>
    </g>
  </g>
</svg>
